<svg width="87" height="36" viewBox="0 0 87 36" fill="none" xmlns="http://www.w3.org/2000/svg">
<path d="M6.07243 10.0061L9.8111 0H12.0394L15.7631 10.0061V10.0358H13.8339L12.9516 7.59747H8.79418L7.94176 10.0358H6.07243V10.0061ZM10.17 3.71696L9.3176 6.06608H12.4431L11.6356 3.76156C11.5159 3.4196 11.1869 2.4978 10.9177 1.7098H10.8878C10.6187 2.4978 10.2747 3.4196 10.17 3.71696Z" fill="#282328"/>
<path d="M19.3126 0V10.0358H17.4582V2.75055H15.1253V1.48678H15.6337C17.189 1.48678 17.4732 1.14482 17.6526 0.223017L17.6975 0H19.3126Z" fill="#282328"/>
<path d="M24.6799 0V10.0358H22.8255V2.75055H20.4926V1.48678H21.0011C22.5564 1.48678 22.8405 1.14482 23.02 0.223017L23.0648 0H24.6799Z" fill="#282328"/>
<path d="M30.9854 6.19989V10.0358H29.1011V0H33.109C33.8717 0 34.3502 0.0446029 34.7839 0.148678C36.1298 0.490639 36.9224 1.48678 36.9224 3.04791C36.9224 4.60903 36.1298 5.67952 34.7989 6.03634C34.3353 6.15529 33.8268 6.19989 33.094 6.19989H30.9854ZM32.8398 1.53139H30.9854V4.6685H32.8398C33.4679 4.6685 33.7969 4.63877 34.0212 4.5793C34.754 4.40088 35.0681 3.88051 35.0681 3.07764C35.0681 2.31938 34.754 1.79901 34.0212 1.62059C33.7969 1.56112 33.4679 1.53139 32.8398 1.53139Z" fill="#282328"/>
<path d="M39.7945 6.61619V10.0358H37.97V2.60187H39.7346V3.80617H39.7645C40.1384 2.81002 41.0506 2.37885 42.0975 2.37885H42.2022V4.04405H42.0526C40.3627 4.04405 39.7945 4.98073 39.7945 6.61619Z" fill="#282328"/>
<path d="M46.352 10.2291C44.1536 10.2291 42.5236 8.8315 42.5236 6.30396C42.5236 3.77643 44.1536 2.37885 46.352 2.37885C48.5653 2.37885 50.1953 3.77643 50.1953 6.30396C50.1953 8.8315 48.5653 10.2291 46.352 10.2291ZM46.352 8.81663C47.5483 8.81663 48.2512 8.0435 48.2512 6.30396C48.2512 4.56443 47.5483 3.7913 46.352 3.7913C45.1706 3.7913 44.4677 4.56443 44.4677 6.30396C44.4677 8.0435 45.1706 8.81663 46.352 8.81663Z" fill="#282328"/>
<path d="M54.4106 10.2291C52.4515 10.2291 51.0458 8.71256 51.0458 6.30396C51.0458 3.89537 52.4515 2.37885 54.4106 2.37885C55.4424 2.37885 56.3248 2.79515 56.8332 3.49394H56.8631C56.8631 3.25606 56.8482 2.9587 56.8482 2.37885V0H58.6727V10.0358H56.908V8.99504H56.8631C56.3846 9.79791 55.4574 10.2291 54.4106 10.2291ZM54.919 8.84637C56.2201 8.84637 56.908 7.86509 56.908 6.30396C56.908 4.74284 56.2201 3.76156 54.919 3.76156C53.7526 3.76156 52.9899 4.56443 52.9899 6.30396C52.9899 8.0435 53.7526 8.84637 54.919 8.84637Z" fill="#282328"/>
<path d="M62.8631 10.2291C61.7266 10.2291 60.919 9.72357 60.5751 8.93557C60.3956 8.53414 60.3208 7.9989 60.3208 7.00275V2.60187H62.1453V6.86894C62.1453 7.38932 62.1752 7.77588 62.2948 8.07324C62.4593 8.54901 62.8332 8.84637 63.5211 8.84637C64.5979 8.84637 65.1961 8.08811 65.1961 6.91355V2.60187H67.0205V10.0358H65.2559V9.15859H65.2409C64.7025 9.87225 63.8352 10.2291 62.8631 10.2291Z" fill="#282328"/>
<path d="M72.0472 10.2291C69.6843 10.2291 68.3085 8.8315 68.3085 6.36344C68.3085 3.71696 69.8937 2.37885 72.0472 2.37885C73.6922 2.37885 75.2624 3.13711 75.412 5.01046H73.5127C73.3333 4.19273 72.7949 3.7913 72.0472 3.7913C70.9256 3.7913 70.2526 4.63877 70.2526 6.27423C70.2526 7.85022 70.8508 8.81663 72.0771 8.81663C72.8248 8.81663 73.438 8.47467 73.6025 7.40419H75.4718C75.2475 9.2924 73.9763 10.2291 72.0472 10.2291Z" fill="#282328"/>
<path d="M78.9092 2.60187H80.5542V3.80617H78.9092V7.85022C78.9092 8.54901 79.1783 8.68282 79.8364 8.68282H80.5392V10.0358H78.9839C78.1315 10.0358 77.638 9.85738 77.3688 9.41134C77.1894 9.11399 77.0847 8.63822 77.0847 7.76101V3.80617H75.9631V2.60187H77.0847V0.728524L78.9092 0.431167V2.60187Z" fill="#282328"/>
<path d="M4.14245 23.1145C1.65997 23.1145 0.134592 22.0738 0 19.8882H1.85438C2.00393 21.1817 3.0358 21.6278 4.26209 21.6278C5.60801 21.6278 6.38566 21.0776 6.38566 20.2153C6.38566 19.4422 5.71269 19.0854 4.51632 18.788L3.48444 18.5352C1.33097 18 0.22432 17.3161 0.22432 15.636C0.22432 13.7181 1.76465 12.6624 4.09759 12.6624C6.43052 12.6624 7.86617 13.6883 8.00076 15.636L6.16134 15.6509C6.01179 14.625 5.27901 14.1492 4.02281 14.1492C2.72175 14.1492 2.06375 14.6696 2.06375 15.4427C2.06375 16.2159 2.66194 16.4835 4.02281 16.7957L5.06964 17.0485C7.07357 17.5242 8.25499 18.2082 8.25499 19.9328C8.25499 21.8656 6.8343 23.1145 4.14245 23.1145Z" fill="#282328"/>
<path d="M11.7707 15.4873H13.4158V16.6916H11.7707V20.7357C11.7707 21.4345 12.0399 21.5683 12.6979 21.5683H13.4008V22.9213H11.8455C10.9931 22.9213 10.4996 22.7428 10.2304 22.2968C10.051 21.9995 9.94628 21.5237 9.94628 20.6465V16.6916H8.82467V15.4873H9.94628V13.614L11.7707 13.3166V15.4873Z" fill="#282328"/>
<path d="M17.1134 23.1145C15.9769 23.1145 15.1693 22.609 14.8254 21.821C14.6459 21.4196 14.5711 20.8844 14.5711 19.8882V15.4873H16.3956V19.7544C16.3956 20.2748 16.4255 20.6613 16.5452 20.9587C16.7097 21.4345 17.0835 21.7318 17.7714 21.7318C18.8482 21.7318 19.4464 20.9736 19.4464 19.799V15.4873H21.2708V22.9213H19.5062V22.0441H19.4912C18.9529 22.7577 18.0855 23.1145 17.1134 23.1145Z" fill="#282328"/>
<path d="M25.9236 23.1145C23.9646 23.1145 22.5588 21.598 22.5588 19.1894C22.5588 16.7808 23.9646 15.2643 25.9236 15.2643C26.9555 15.2643 27.8378 15.6806 28.3463 16.3794H28.3762C28.3762 16.1415 28.3612 15.8442 28.3612 15.2643V12.8855H30.1857V22.9213H28.4211V21.8805H28.3762C27.8976 22.6834 26.9704 23.1145 25.9236 23.1145ZM26.4321 21.7318C27.7331 21.7318 28.4211 20.7506 28.4211 19.1894C28.4211 17.6283 27.7331 16.647 26.4321 16.647C25.2656 16.647 24.5029 17.4499 24.5029 19.1894C24.5029 20.929 25.2656 21.7318 26.4321 21.7318Z" fill="#282328"/>
<path d="M33.763 12.8855V14.5358H31.9386V12.8855H33.763ZM33.763 15.4873V22.9213H31.9386V15.4873H33.763Z" fill="#282328"/>
<path d="M38.8302 23.1145C36.6319 23.1145 35.0018 21.717 35.0018 19.1894C35.0018 16.6619 36.6319 15.2643 38.8302 15.2643C41.0435 15.2643 42.6736 16.6619 42.6736 19.1894C42.6736 21.717 41.0435 23.1145 38.8302 23.1145ZM38.8302 21.7021C40.0266 21.7021 40.7295 20.929 40.7295 19.1894C40.7295 17.4499 40.0266 16.6768 38.8302 16.6768C37.6488 16.6768 36.9459 17.4499 36.9459 19.1894C36.9459 20.929 37.6488 21.7021 38.8302 21.7021Z" fill="#282328"/>
<path d="M50.7432 23.1145C47.9018 23.1145 45.9277 21.2709 45.9277 17.8811C45.9277 14.5061 47.9018 12.6624 50.7432 12.6624C53.5995 12.6624 55.5735 14.5061 55.5735 17.8811C55.5735 21.2709 53.5995 23.1145 50.7432 23.1145ZM50.7432 21.5831C52.3284 21.5831 53.5846 20.7208 53.5846 17.8811C53.5846 15.0562 52.3284 14.1938 50.7432 14.1938C49.1729 14.1938 47.9167 15.0562 47.9167 17.8811C47.9167 20.7208 49.1729 21.5831 50.7432 21.5831Z" fill="#282328"/>
<path d="M59.2601 15.2792V15.4873H60.9051V16.6916H59.2601V22.9213H57.4356V16.6916H56.314V15.4873H57.4356V15.0562C57.4356 13.9262 57.8992 13.3612 58.6619 13.0787C59.0208 12.9449 59.5442 12.8855 60.3518 12.8855H60.8902V14.2384H60.3817C59.604 14.2384 59.2601 14.402 59.2601 15.2792Z" fill="#282328"/>
<path d="M62.6476 14.4169V12.8855H70.7082V14.4169H67.6275V22.9213H65.7432V14.4169H62.6476Z" fill="#282328"/>
<path d="M73.4513 18.7285V22.9213H71.6268V12.8855H73.4513V15.2643C73.4513 15.6509 73.4513 15.9482 73.4363 16.3051H73.4513C73.9747 15.6063 74.8271 15.2643 75.7992 15.2643C77.0105 15.2643 77.8779 15.8293 78.1919 16.6322C78.3265 16.9741 78.4013 17.3904 78.4013 18.4014V22.9213H76.5768V18.6988C76.5768 18.1635 76.5469 17.7621 76.4273 17.4648C76.2478 16.9741 75.8739 16.6619 75.1561 16.6619C74.0345 16.6619 73.4513 17.435 73.4513 18.7285Z" fill="#282328"/>
<path d="M87 19.1894C87 19.2489 87 19.4422 86.985 19.6057H81.5266C81.6163 21.1371 82.4837 21.6872 83.4857 21.6872C84.368 21.6872 84.8615 21.3007 85.0559 20.587H86.9402C86.6411 22.3563 85.1157 23.1145 83.4109 23.1145C81.0181 23.1145 79.6124 21.6129 79.6124 19.2638C79.6124 16.7808 81.1826 15.2643 83.366 15.2643C85.4746 15.2643 87 16.6619 87 19.1894ZM83.3511 16.647C82.4687 16.647 81.6911 17.1377 81.5565 18.342H85.1008C84.9662 17.1228 84.2483 16.647 83.3511 16.647Z" fill="#282328"/>
<path d="M9.79679 35.777L13.5355 25.7709H15.7637L19.4874 35.777V35.8067H17.5583L16.676 33.3684H12.5185L11.6661 35.8067H9.79679V35.777ZM13.8944 29.4879L13.042 31.837H16.1675L15.3599 29.5325C15.2403 29.1905 14.9113 28.2687 14.6421 27.4807H14.6122C14.343 28.2687 13.9991 29.1905 13.8944 29.4879Z" fill="#282328"/>
<path d="M22.0933 31.2423V35.8067H20.2688V28.3728H22.0335V29.1608H22.0634C22.512 28.5215 23.2897 28.1498 24.2169 28.1498C25.144 28.1498 25.8469 28.4917 26.2357 29.1757H26.2656C26.8339 28.462 27.7013 28.1498 28.5687 28.1498C29.78 28.1498 30.6025 28.7296 30.8867 29.5474C31.0063 29.8893 31.0661 30.3205 31.0661 31.1828V35.8067H29.2416V31.2126C29.2416 30.707 29.1818 30.3354 29.0622 30.1272C28.8678 29.7704 28.464 29.6068 28.0004 29.6068C27.0283 29.6068 26.5797 30.3354 26.5797 31.2423V35.8067H24.7552V31.2126C24.7552 30.707 24.6954 30.3354 24.5758 30.1272C24.3814 29.7704 23.9776 29.6068 23.5289 29.6068C22.5419 29.6068 22.0933 30.3354 22.0933 31.2423Z" fill="#282328"/>
<path d="M36.9517 36C35.9348 36 35.0525 35.5986 34.5141 34.8403H34.4692V35.8067H32.7046V25.7709H34.5291V28.1498C34.5291 28.6999 34.5141 28.9972 34.5141 29.2351H34.544C35.0674 28.5363 35.9198 28.1498 36.9517 28.1498C38.8958 28.1498 40.3315 29.6217 40.3315 32.0749C40.3315 34.5281 38.8958 36 36.9517 36ZM36.4433 34.6173C37.6097 34.6173 38.3874 33.8144 38.3874 32.06C38.3874 30.3354 37.6097 29.5325 36.4433 29.5325C35.1422 29.5325 34.4692 30.4989 34.4692 32.06C34.4692 33.636 35.1422 34.6173 36.4433 34.6173Z" fill="#282328"/>
<path d="M43.4751 25.7709V27.4213H41.6506V25.7709H43.4751ZM43.4751 28.3728V35.8067H41.6506V28.3728H43.4751Z" fill="#282328"/>
<path d="M47.4357 28.3728H49.0807V29.5771H47.4357V33.6211C47.4357 34.3199 47.7048 34.4537 48.3629 34.4537H49.0657V35.8067H47.5104C46.658 35.8067 46.1645 35.6283 45.8953 35.1823C45.7159 34.8849 45.6112 34.4091 45.6112 33.5319V29.5771H44.4896V28.3728H45.6112V26.4994L47.4357 26.2021V28.3728Z" fill="#282328"/>
<path d="M52.1652 25.7709V27.4213H50.3407V25.7709H52.1652ZM52.1652 28.3728V35.8067H50.3407V28.3728H52.1652Z" fill="#282328"/>
<path d="M57.2324 36C55.0341 36 53.404 34.6024 53.404 32.0749C53.404 29.5474 55.0341 28.1498 57.2324 28.1498C59.4457 28.1498 61.0757 29.5474 61.0757 32.0749C61.0757 34.6024 59.4457 36 57.2324 36ZM57.2324 34.5876C58.4288 34.5876 59.1316 33.8144 59.1316 32.0749C59.1316 30.3354 58.4288 29.5622 57.2324 29.5622C56.051 29.5622 55.3481 30.3354 55.3481 32.0749C55.3481 33.8144 56.051 34.5876 57.2324 34.5876Z" fill="#282328"/>
<path d="M64.8274 36C63.6908 36 62.8833 35.4945 62.5393 34.7065C62.3599 34.3051 62.2851 33.7698 62.2851 32.7737V28.3728H64.1096V32.6399C64.1096 33.1602 64.1395 33.5468 64.2591 33.8442C64.4236 34.3199 64.7975 34.6173 65.4854 34.6173C66.5621 34.6173 67.1603 33.859 67.1603 32.6845V28.3728H68.9848V35.8067H67.2201V34.9295H67.2052C66.6668 35.6432 65.7994 36 64.8274 36Z" fill="#282328"/>
<path d="M73.5329 36C71.5888 36 70.2578 35.2417 70.1681 33.5022L71.9477 33.4873C71.9776 34.3199 72.7253 34.6916 73.6226 34.6916C74.4152 34.6916 75.1031 34.3943 75.1031 33.7698C75.1031 33.3238 74.7741 33.1305 73.6824 32.8778L73.0394 32.7291C71.2 32.3128 70.3774 31.7478 70.3774 30.4989C70.3774 28.9229 71.6636 28.1498 73.4731 28.1498C75.163 28.1498 76.4491 28.8188 76.6435 30.4097L74.8938 30.4246C74.7293 29.6663 74.1161 29.4581 73.3983 29.4581C72.5459 29.4581 72.0823 29.7258 72.0823 30.2313C72.0823 30.6922 72.4861 30.9301 73.5478 31.1531L74.2806 31.3166C76.0154 31.7032 76.8528 32.283 76.8528 33.5765C76.8528 35.1823 75.5368 36 73.5329 36Z" fill="#282328"/>
</svg>
