<svg preserveAspectRatio="none" width="100%" height="100%" overflow="visible" style="display: block;" viewBox="0 0 760 423.997" fill="none" xmlns="http://www.w3.org/2000/svg">
<path id="Vector 11" d="M428.07 423.997L22.1116 423.941C9.89921 423.939 0 414.039 0 401.826V306.04C0 298.298 2.37037 290.741 6.79241 284.386L65.7556 199.65C69.9724 193.59 71.8076 186.188 70.9105 178.86L50.9648 15.9442C49.9274 7.47064 56.5392 0 65.076 0H264.44C273.782 0 282.796 3.44955 289.751 9.68689L335.819 51.0006C341.967 56.5135 350.114 59.2502 358.343 58.5663L591.439 39.1944C599.435 38.5298 606.88 34.8473 612.26 28.8944L631.392 7.72705C635.838 2.80734 642.16 0 648.791 0H737.885C750.099 0 760 9.90106 760 22.1147V229.757C760 239.724 756.116 249.298 749.172 256.447L700.666 306.388C693.894 313.36 684.588 317.294 674.869 317.294H563.402C551.806 317.294 540.75 322.196 532.964 330.791L462.26 408.839C453.515 418.493 441.096 423.999 428.07 423.997Z" fill="var(--fill-0, #14217E)"/>
</svg>
