<svg preserveAspectRatio="none" width="100%" height="100%" overflow="visible" style="display: block;" viewBox="0 0 760.375 394.935" fill="none" xmlns="http://www.w3.org/2000/svg">
<path id="Vector 4" d="M748.347 315.877L662.516 384.439C657.642 388.332 655.206 390.279 652.493 391.662C650.086 392.89 647.524 393.787 644.877 394.329C641.893 394.939 638.774 394.938 632.536 394.935L15.9927 394.654C10.3945 394.651 7.59539 394.65 5.45727 393.56C3.57651 392.601 2.04752 391.071 1.08933 389.19C1.62125e-05 387.051 1.60625e-05 384.252 1.58178e-05 378.654L2.31953e-10 16.7908C-2.44575e-07 11.1903 -3.57628e-07 8.39003 1.08993 6.2509C2.04866 4.36931 3.57847 2.83949 5.46008 1.88075C7.5992 0.790815 10.3995 0.790815 16 0.790815L186.955 0.790777L422.675 0.00731926C429.845 -0.0165153 433.43 -0.0284479 436.815 0.754542C439.817 1.44882 442.694 2.60134 445.345 4.17159C448.334 5.94244 450.92 8.42645 456.09 13.394L475.564 32.1047C492.719 48.5869 501.297 56.8279 511.213 62.715C520.005 67.9352 529.546 71.7759 539.503 74.1033C550.732 76.728 562.627 76.728 586.417 76.728H744.375C749.976 76.728 752.776 76.728 754.915 77.8179C756.797 78.7766 758.326 80.3065 759.285 82.1881C760.375 84.3272 760.375 87.1275 760.375 92.728V290.875C760.375 296.528 760.375 299.355 759.656 301.964C759.018 304.275 757.97 306.454 756.562 308.394C754.972 310.585 752.764 312.349 748.347 315.877Z" fill="var(--fill-0, #DDE4FF)"/>
</svg>
